# xmcd CD database file
#
# Track frame offsets:
#	150
#	15252
#	32214
#	48929
#	65998
#	76792
#	92565
#	107854
#	125879
#	144316
#	158736
#	176007
#	193818
#	205419
#	222325
#	237865
#	257262
#	270751
#	286936
#	301845
#
# Disc length: 4269 seconds
#
# Revision: 0
# Processed by: cddbd v1.5.1PL2 Copyright (c) Steve Scherf et al.
# Submitted via: CDex 1.50
#
DISCID=1310ab14
DTITLE=Various Artist - NFS - Vol 103
DYEAR=2006
DGENRE=Country
TTITLE0=Karen Lynne - The Circle Is Small
TTITLE1=Greg Champion - Been there Done That Like To Do It Again
TTITLE2=Paul Hicks - If It Sounds Good It's Alright
TTITLE3=Tracy Coster - I Don't Want To Talk About Rain
TTITLE4=Rod Dowsett - Thrill Of The Chase
TTITLE5=Michael King - When A Son Becomes A Father
TTITLE6=Nattasha Crestani - Never Surrender
TTITLE7=Drew McAlister - Change
TTITLE8=Friends In No Places - Longreach Sky
TTITLE9=Clelia Adams - Heartbeat Highway
TTITLE10=John Stephan - I'm Sorry
TTITLE11=Wildseed - Salamander Bay
TTITLE12=Connie Kis Andersen - Kiss My Cheek
TTITLE13=Dave Prior - All These Things I Can Do
TTITLE14=Vibe - Drivin'
TTITLE15=Horswood - 100 Points
TTITLE16=Col Thomson - The Key
TTITLE17=Joni Harms - Love Never Hurt Nobody
TTITLE18=Alan Mackey - Overproof
TTITLE19=Distance - Don't Look Back
EXTD=YEAR: 2006
EXTT0=
EXTT1=
EXTT2=
EXTT3=
EXTT4=
EXTT5=
EXTT6=
EXTT7=
EXTT8=
EXTT9=
EXTT10=
EXTT11=
EXTT12=
EXTT13=
EXTT14=
EXTT15=
EXTT16=
EXTT17=
EXTT18=
EXTT19=
PLAYORDER=
